<?xml version="1.0" encoding="utf-8"?>
<!-- Generator: Adobe Illustrator 19.2.0, SVG Export Plug-In . SVG Version: 6.00 Build 0)  -->
<svg version="1.1" id="Layer_1" xmlns="http://www.w3.org/2000/svg" xmlns:xlink="http://www.w3.org/1999/xlink" x="0px" y="0px"
	 viewBox="0 0 27 30" style="enable-background:new 0 0 27 30;" xml:space="preserve">
<style type="text/css">
	.st0{fill:#FCD6D6;}
	.st1{fill:#222222;}
</style>
<path class="st0" d="M13.5,0C5.2,0,0,5.2,0,13.5C0,21.6,13.5,30,13.5,30S27,21.8,27,13.5C27,5.2,21.8,0,13.5,0"/>
<path class="st1" d="M16,7.5c-0.2,0-0.6,0-0.6,0c-0.1,0-0.1,0-0.1,0.1c0,0-0.1,0-0.1,0c0,0-0.1,0-0.1,0c0,0,0,0-0.1,0c0,0,0,0,0,0
	l-0.1,0.1l-0.2,0l-0.1,0.1l-0.1,0.1L14.2,8c-0.1,0.1-0.1,0.1-0.2,0.2c0,0.1-0.1,0.1-0.1,0.1l-0.1,0.1l0,0.1l-0.1,0.1l0,0.1l0,0
	l-0.1,0.1c0,0,0,0.1,0,0.1c0,0,0,0,0,0c0,0,0,0,0,0c0,0,0,0,0,0c0,0,0,0,0,0l0,0.1l-0.1,0.1l0,0.2c0,0.1-0.1,0.1-0.1,0.2
	c0,0,0,0-0.1,0c0,0-0.1,0-0.1-0.1l-0.1,0l0-0.1l0,0l0-0.1l0-0.2L13.1,9l0.1-0.1c0,0,0-1,0-1.1c0-0.1,0-0.2-0.1-0.2
	c0,0-0.1-0.1-0.2-0.1c0,0-0.1,0-0.1,0c-0.1,0-0.3,0-0.3,0c0,0-0.1,0-0.1,0s-0.1,0-0.1-0.1c0,0-0.1-0.1-0.1-0.1c0,0-0.1,0-0.2,0
	c-0.2,0-0.6,0.2-0.8,0.2c0,0,0,0,0,0c-0.2,0-0.5-0.1-0.7-0.1c-0.2,0-0.5,0.1-0.5,0.2c0,0.1-0.2,0.1-0.3,0.3C9.5,8.2,9.4,8.7,9.3,9
	c0,0.4,0.2,0.5,0.4,0.7c0.1,0.1,0.2,0.1,0.3,0.1c0.2,0,0.3,0,0.5,0c0.2,0,1,0.1,1,0.1l0.3,0l0,0.1l0.1,0l0,0l0.2,0l0.1,0l0.1,0.1
	l-0.1,0.1l0.1,0.1l0,0.1l0,0.2l0.1,0.1l0,0.1l0.1,0.1L12.5,11l0,0.1l0,0.2l0,0.1l0.1,0.1l0.1,0.2l0,0.1l0,0.1l0,0.6l0,0.1l-0.1,0.1
	l-0.1,0.1l0,0.4l0.1,0.1l0,0.4l0,0.2l-0.1,0.1l0.1,0.1l0,0.1l0,0.7l0,0.1l0,0.1l-0.1,0.1l0,0.3l-0.1,0.1l0,0.2l0.2,0.2l0.1,0.2
	l0,0.1l0,0c0,0,0,0.1,0,0.2c0,0.1,0,0.1,0.1,0.1l0,0.5l-0.1,0.1l-0.1,0.1c0,0,0,0-0.1,0c0,0,0,0-0.1,0c0,0,0,0-0.1,0
	c-0.1,0-0.1,0-0.1,0l-0.2,0l-0.4,0c0,0,0,0.1-0.1,0.1h0c-0.1,0-0.1,0-0.1,0l-0.3,0l-0.1,0l-0.4,0l-0.1-0.1c0-0.1-0.3,0-0.4-0.1h0
	c-0.1,0-0.1,0-0.1,0.1l-0.3,0L9.5,17l-0.2,0.2c0,0.1-0.1,0.1-0.1,0.2c0,0.1,0,0.7,0,0.7l0,0.1l0,0.1L9,18.5l0,0.2l0.1,0.1L9.2,19
	l0.1,0.1c0,0,0,0,0.1,0.1c0,0,0,0,0,0c0,0,0.1-0.1,0.1-0.1l0.1,0L9.8,19l0.4,0l0.1,0.1l0.5,0l0.1,0l0.1,0l0.2,0l0.1,0l0.1,0l0.2,0
	l0.1-0.1c0,0,0.1,0,0.1,0.1c0,0,0,0,0,0c0,0,0.1,0,0.1-0.1l0.2,0l0.1,0l0.1-0.1l0.1,0l0.1,0c0,0,0,0,0,0c0,0,0.1,0,0.2,0
	c0.1,0,0.2,0,0.2,0c0,0,0.1,0,0.1,0c0.1,0,0.9,0,0.9,0l0.1,0l0.1,0l0.1,0l0.2,0l0.1,0l0.1,0l0.1,0.1l0.2,0l0.1,0l0.1-0.1l0.1,0
	l0.1-0.1h0.1l0.1,0.1l0.1,0.1l0,0c0,0,0.1,0,0.2,0.1c0,0,0,0,0.1,0c0,0,0.1,0,0.1-0.1c0,0,0,0,0.1,0c0.1,0,0.1,0,0.2,0h0
	c0.1,0,0.2-0.1,0.2-0.1l0.1,0l0.1-0.1l0.1,0l0,0l0,0l0-0.1l0.1,0l0-0.5l-0.1-0.1c0,0,0-0.8,0-0.9c0-0.1,0-0.2-0.1-0.2l0-0.1L16.7,17
	l-0.1-0.1l-0.2,0l-0.1-0.1l-0.1,0.1l-1.3,0l-0.1-0.1l-0.5,0l-0.1-0.1l-0.4,0l-0.1-0.1l-0.1,0.1l-0.1-0.1l-0.1,0l0-0.1l-0.1-0.1
	l-0.1-0.1l0-0.6l0-0.1l0-0.1l0-0.3l-0.1-0.1l0-0.1l0-0.3l0-0.1l0-0.1l0-0.6l0,0l0.1,0l0-0.1l0-0.2l0-0.1l0.1-0.1l0-0.5l-0.1-0.1
	v-0.4l0-0.1l0-0.1l0-0.1l0-0.2l0-0.7l0-0.3l0-0.2l0-0.1l-0.1-0.1l0.1-0.1c0,0,0-0.1,0-0.2c0-0.1,0-0.1,0-0.1l0.1-0.2l0-0.1l0.1-0.1
	l0-0.2c0,0,0.1,0,0.1-0.1c0-0.1,0.1-0.1,0.2-0.1L14,9.4c0,0,0,0,0,0c0.1,0,0.3,0.1,0.4,0.1c0.1,0.1,0.1,0.1,0.2,0.2l-0.1,0.1
	c0,0,0,0.1,0,0.2c0,0.1-0.1,0.1-0.1,0.1l-0.1,0.2l0,0.2l0,0.2l0.1,0.2c0,0,0,0.1,0.1,0.3c0.1,0.1,0.5,0.4,0.6,0.4l0.2,0
	c0,0,0,0,0.2,0c0.1,0,0.2,0,0.3,0c0,0,0,0,0,0c0.1,0,0.1,0,0.2,0c0.1,0,0.4,0,0.4,0l0.1-0.1l0.1-0.1l0.1,0c0,0,0.1,0,0.1-0.1
	c0.1,0,0.1,0,0.1,0h0l0.2-0.1l0.1,0l0.3-0.3l0-0.4c0,0,0-0.1,0.1-0.1c0.1,0,0.1-0.2,0.1-0.2l0-0.1c0,0,0.1-0.3,0-0.4
	c0-0.1-0.1-0.1-0.1-0.1l0-0.5l0-0.1l0-0.2l0-0.1l-0.1-0.1l0-0.1c0,0,0,0,0,0c0,0,0,0,0,0h0c0,0,0,0,0-0.1c0-0.1-0.1-0.1-0.1-0.1
	L17.4,8l-0.1-0.1l-0.1,0l0-0.1l-0.1,0l-0.1-0.1l-0.1,0l-0.1-0.1l-0.1,0l-0.1-0.1c0,0,0,0-0.1,0c0,0-0.1,0-0.2,0
	c-0.1,0-0.1,0.1-0.1,0.1l-0.1-0.1C16.2,7.5,16.1,7.5,16,7.5"/>
</svg>
