<?xml version="1.0" encoding="utf-8"?>
<!-- Generator: Adobe Illustrator 16.0.0, SVG Export Plug-In . SVG Version: 6.00 Build 0)  -->
<!DOCTYPE svg PUBLIC "-//W3C//DTD SVG 1.1//EN" "http://www.w3.org/Graphics/SVG/1.1/DTD/svg11.dtd">
<svg version="1.1" id="Layer_1" xmlns="http://www.w3.org/2000/svg" xmlns:xlink="http://www.w3.org/1999/xlink" x="0px" y="0px"
	 width="20px" height="15px" viewBox="0 0 20 15" enable-background="new 0 0 20 15" xml:space="preserve">
<g>
	<g>
		<circle fill="#1D1D1B" cx="3" cy="6" r="1"/>
	</g>
	<path fill="#1D1D1B" d="M19,3h-2V1c0-0.552-0.447-1-1-1H4C3.447,0,3,0.448,3,1v2H1C0.447,3,0,3.448,0,4v8c0,0.553,0.447,1,1,1h2v1
		c0,0.275,0.111,0.525,0.293,0.707C3.474,14.889,3.724,15,4,15h12c0.276,0,0.525-0.111,0.707-0.293S17,14.275,17,14v-1h2
		c0.553,0,1-0.447,1-1V4C20,3.448,19.553,3,19,3z M4,1h12v2H4V1z M16,12v1v1H4v-1v-1v-1h12V12z M19,12h-2v-1l0,0
		c0.275,0,0.5-0.225,0.5-0.5S17.275,10,17,10l0,0H3l0,0c-0.275,0-0.5,0.225-0.5,0.5S2.725,11,3,11l0,0v1H1V4h2h14h2V12z"/>
</g>
</svg>
